<?xml version="1.0" encoding="utf-8"?>
<!-- Generator: Adobe Illustrator 19.0.0, SVG Export Plug-In . SVG Version: 6.00 Build 0)  -->
<svg version="1.1" id="Layer_1" xmlns="http://www.w3.org/2000/svg" xmlns:xlink="http://www.w3.org/1999/xlink" x="0px" y="0px"
	 viewBox="0 0 466 362.7" style="enable-background:new 0 0 466 362.7;" xml:space="preserve">
<style type="text/css">
	.st0{fill:none;}
	.st1{font-family:'Strongarm';}
	.st2{font-size:86.6664px;}
	.st3{fill:#AA1300;}
</style>
<g>
	<path d="M48.5,237.7c-0.3,0.9-0.9,1.6-1.7,2c0,0,0,0,0,0.1c1.5-0.7,3.1-1.3,4.5-2.1c0,0,0,0,0,0c0-0.1,0.1-0.1,0.1-0.2
		C50.5,237.7,49.5,237.7,48.5,237.7z"/>
	<path d="M413.3,161.3c-4.5-2.3-5.3-5.1-2.7-9.4c0.1-0.1,0.1-0.2,0.2-0.3c-0.8-0.9-1.5-1.9-2.2-2.9c-0.2-0.3-0.6-0.9-1-1.5
		c-0.1-0.1-0.1-0.1-0.2-0.2c-0.5-0.6-1.1-1.1-1.6-1.7c-0.1,0.1-0.1,0.1-0.2,0.2c-3.7,2.8-5.4,2.4-8.5-0.9c-1.7-1.9-4.1-3.1-6.1-4.8
		c-1.6-1.3-3-2.8-4.5-4.2c-0.9,0-1.8-0.1-2.6-0.1c-2-3.3-4.4-5.8-10.1-3.3c0.3-0.6,0.5-1.2,0.8-1.8c-2.7-0.3-5.4-0.6-8-0.8
		c-0.3,0.5-0.5,1.1-0.8,1.6c2.1,0.3,4,0.6,5.8,0.9c0,0.6,0.1,1.2,0.1,1.7c-11.3,2.1-22.5,4.2-34.8,6.5c3.8-2.3,6.7-4.1,9.6-5.8
		c-0.2-0.4-0.3-0.7-0.5-1.1c-0.9,0.3-2,0.4-2.7,1c-4.2,3.1-8.2,1.8-12.2-0.3c-4.2-2.2-8.3-1.6-12.5-0.2l0.1,0
		c-1.1,0.9-2.3,1.7-3.4,2.6l-0.2-0.1c-1.5,0.3-3,0.8-4.6,0.9c-5.6,0.4-8.8,4.6-11.5,8.4c-1.8,2.5-3-1.9-4.4-0.7
		c1.6-2.2,3.3-4.3,4.9-6.5c-0.2-0.3-0.4-0.7-0.5-1c-2.1,0.6-4.2,1-6.2,1.8c-3.2,1.2-5.3,0.2-4.4-3.1c2.1-8.3,1.9-17.3,7.1-24.6
		c0.8-1.1,3.7-1,5.6-0.7c2.4,0.3,4.6,1.4,6.9,2.2l0.6-2.1c-3.9-1.1-7.8-2.2-11.1-3.1c-2.5-4.1-5.1-8.2-7.6-12.4
		c-1.2-2.1-2.1-4.4-3.3-6.5c-0.9-1.6-2-3-3-4.6c-0.8-1.4-1.6-2.8-2.2-4.3c-1.2-3.2-2.3-6.4-3.4-9.5c-0.1,0,0.7,0.1,2.4,0.2
		c-2.3-4.5-4.3-8.6-6.3-12.7c0.1,0,0.2-0.1,0.3-0.1c-0.5-1.6-0.7-3.4-1.6-4.7c-3.9-5.8-7.7-11.8-12.3-17.1
		c-2.7-3.1-6.6-5.7-10.4-7.2c-5.2-2-10.8-2.7-16.2-4c-0.1,0.3,0.1-0.3,0.2-0.8c-5.9,0.5-12.1-1.6-16.2,2.7v9.6
		c-4.5-0.2-8.1-0.4-12.6-0.6c0-0.9-0.6-3.4,0.1-3.8c1.5-0.9,3.7-0.7,6.5-1.1c0.8-0.6,2.5-1.8,3.7-2.6c-3.5-1-6.8-2.7-10.1-2.5
		c-2.8,0.1-5.4-0.1-8.1-0.7c-3.4-0.7-7-1-10.5-1.2c-1.8-0.1-1.9,2.5-4,3c-4.6,1.1-8.9,3.1-13.3,4.8c-0.7,0.3-1.4,1.1-1.6,1.8
		c-0.7,2.5-2.2,3.9-4.6,4.5c-0.6,0.1-1.1,1.3-1.3,2c-0.6,1.8-1.2,3.6-1.6,5.5c-1.5,6.2-6.3,11.5-4.5,18.5c0.4,1.6-0.1,3.5,0.1,5.2
		c0.1,1.2,0.9,2.3,1.1,3.5c0.4,2.6,0.6,5.2,0.9,7.8c1.7-1.6,3.5-3.3,5.3-5c-4.9,7.5-6.9,15.8-7.7,24.4c0.1,3.1,0.1,6.2,0.2,9.4
		c-2.3,2.6-3.5,5.5-1.9,9.1c-4.2-3.5-1.2-8.9-4-14.1c-0.6,4.5-1.1,8.1-1.5,11.6c-0.3,0-0.6,0.1-0.9,0.1c-0.2-1.5-0.4-3-0.6-4.6
		c-1.3-0.5-3.1-1.2-4.8-1.8c0.2-2.1,0.4-3.8,0.6-5.2c-1.9,0.8-3.7,1.1-4.8,2c-1,0.8-1.8,2.4-2,3.7c-0.5,4.9-0.8,9.8-1.1,14.7
		c-0.1,0.8-0.1,1.9,0.3,2.5c3.5,4.8,2.6,10.2,2.4,15.6c-0.1,1.4,0,3.6,0.7,4c4.1,2.4,1.7,4.1-0.3,5.7c0.6,1.4,1.1,2.6,1.8,4.5
		c0.3,0.1,1.5,0.3,3.2,0.7c-1.4,7.5-2.4,14.9-4.3,22c-0.4,1.6-3.8,2.7-6,3.3c-2.9,0.9-6.2,0.6-8.2,3.8c-0.4,0.7-1.8,0.8-2.9,1.3
		c0.7,0.6,1.1,1,1.4,1.2c-1.8,0.9-3.7,1.8-5.5,2.7c0,0,0,0,0-0.1c-3.5,0.3-7,0.6-10.9,0.9c-0.7-4.6-5.3-5.3-8.7-4.5
		c-3.4,0.8-4.5,4.9-3.7,8.7c-1.6,0.6-3.2,1.2-4.8,1.8l0,0.1c-2.6,2.4-3.3,6.7-7.5,7.5c-0.5,0.1-1.2-1-1.8-1.1
		c-1.2-0.1-2.6-0.3-3.5,0.3c-2.6,1.8-5,3.9-7.8,6.2c1.1,0.1,2,0.4,2.8,0.2c2.9-0.6,7.6,1.5,7.9,3.9c0.3,3.4-0.6,6-4.6,7.2
		c-4.1,1.2-7.9,3.5-12,5.4c-0.3,1.5-0.4,2.6-1,3.5c0,2.1-0.5,4.3-1.2,6.4c1-0.2,2.1-0.3,3.1-0.4c3.4-0.3,6.7-1.9,10-2.8
		c0,0,0.2,0.2,0.2,0.3c-0.1,0.2-0.3,0.5-0.4,0.7c2.8,2.2,1.7,4.9,0.2,7c-2.7,3.7-5.1,7.5-5.7,12.2c-0.1,0.6-0.7,1.2-1.6,2.4
		c-0.3-1.3-0.4-1.9-0.4-2c-3.6,0.7-7.3,1.4-10.9,2.2c-0.2-0.4-0.4-0.8-0.6-1.1c6-6.8,12.1-13.6,18.1-20.4c-4.3,2.6-8.5,5.1-13.1,7.9
		c-0.1-0.1-0.5-0.8-0.8-1.4c-0.1,0-0.1,0-0.2,0c-0.4,0.8-0.8,1.6-1.2,2.4c-2.6,4.8-5.7,9.3-8.4,14c-0.4,0.8-0.8,1.6-1.3,2.4
		c-1.2,2-3.1,2.5-4.8,2c0,0.9,0.1,1.9,0.1,2.9c0.5,5.6-8.3,5.6-8.8,0c-0.2-2.3-0.2-4.7-0.1-7.1c-0.5,1.4-1,2.7-1.5,4.1
		c-0.4,1.4-0.8,2.8-1.2,4.1c-0.2,0.7-0.5,1.2-0.8,1.6c0,0.5,0.1,1.1,0.1,1.6h401.8V179c-4.4-4.7-8.7-9.4-13.2-13.9
		C417.4,163.5,415.3,162.3,413.3,161.3z M80.5,250.6c-0.2-0.1-0.5-0.2-0.7-0.3c-0.6-2.1-1.2-4.2-1.9-6.8c1.2-0.1,2.4-0.2,4.3-0.3
		C81.5,246,81,248.3,80.5,250.6z M115.3,196.4c0.7-1.5,1.2-2.7,1.8-4c4,0.3,8,0.2,11.9,1c2,0.4,3.8,2.1,5.6,3.2
		C127.4,203.7,121.2,197.2,115.3,196.4z M290,190.3c0.5-0.8,1.2-2.1,2.2-3.9c2,1.5,3.9,2.9,5.7,4.2c4.5-0.7,1.1,3.2,2.7,4.5
		c0.1,0,0.5,0.2,0.9,0.4c1.5,0.7,2.9,1.4,4.4,2.1c-1,1.3-1.9,2.9-3.2,3.9c-1.4,1.1-3.1,1.8-4.7,2.7c-0.4,1.6-0.8,3.2-1.3,5.4
		c-1.9-1.8-3.3-3.1-4.7-4.5c-0.8-2-1.6-3.9-2.4-5.9c-2-2.9-4-5.7-6.8-9.6C285.6,190,287.5,190.1,290,190.3z M209.3,50.8
		c0.8,1.6,1.9,3.7,3,5.9c-4.4,2.2-4.5,2.9-9.8-3.2C204.3,52.8,206.4,52,209.3,50.8z M195,30.5c2.1,0.1,4.2,0.3,6.9,0.5
		c0.3,1.3,0.7,3,1,4.7c-0.4,0.3-0.7,0.6-1.1,0.9c-2.5-1.7-5-3.4-7.5-5.1C194.6,31.1,194.8,30.8,195,30.5z M170.9,250.7l0.1,0.1
		c-2.2-2.1-3.1-0.2-3.8,1.4c-2.8,6.5-6,7.2-10.8,2.4c-4.6,2.5-4.6,2.5-8.7-2.8c-0.7,1.2-1.3,2.2-2.3,3.8c-0.6-1.1-1.6-2-1.5-2.8
		c0.3-4.4-0.9-8.3-2.6-12.4c-1-2.6,0.3-6.2,1-9.3c0.7-3,2.4-5.8,3.1-8.8c1.3-5.8,6.7-7.1,10.5-10.1c0.2-0.2,2.3,1.5,2.8,2.6
		c0.4,0.9-0.2,2.3-0.5,4.9c3.2-1.9,5.2-3.1,7.4-4.4c2.1,3.2-0.8,9.8,5.9,11.7c-0.1,1.1-0.2,2.2-0.3,3.3c0.2,0.1,0.5,0.4,0.7,0.4
		c4.1-0.7,5.1,2,5.2,5c0.2,4.5,0.2,9.1-0.1,13.7c-0.1,1-1.8,2.2-3.1,2.6C173.2,252.2,171.9,251.1,170.9,250.7z M188.1,255.5
		c-3.1,4.4-7.9,1.4-11.9,2.2c-0.3-0.6-0.5-1.1-0.8-1.7c4.4-3.5,8.9-6.9,13.5-10.5C191.8,249.1,190.1,252.7,188.1,255.5z
		 M254.1,193.4c-2,3.4-6.9,5.4-10.9,7.3c-9.3,4.3-18.7,3.3-27.9-0.9c-5.7-2.6-9.7-7-12.3-12.6c-2.7-5.8-5.2-11.6-5.2-18.2
		c0-0.7-0.3-1.4-0.7-2c-2.7-3.8-2.9-4.8-1.3-11c4.9,6.7,9.1,12.6,13.6,18.9c0.5-1.3,1-2.5,1.8-4.7c0.6,1.8,0.8,2.6,1.1,3.5
		c0.5-1.4,0.7-3,1.6-4c2.3-2.3,1.3-4.5,0.2-6.8c-0.6-1.2-1.7-2.1-2.1-3.3c-0.4-1.2-0.1-2.6-0.2-3.9c1.2,0.4,2.5,0.6,3.6,1.2
		c7.6,4.8,8.5,13,10.1,20.8c0.4,1.8,0.9,3.6,1.9,5.4c3.9-9.4,7-18.8,14.7-26.6c0,2.7,0,5.2,0,7.6c0,2-0.4,4-0.3,6
		c0.1,3.2,0.2,3.2,3.8,2.6c0.4-4.7,0.8-9.3,1.1-14l1.6-0.2c0.8,2,1.6,3.9,2.8,6.7c0.4-4.1,0.8-7.4,1.1-10.6c0.3,0,0.6,0,0.9,0v10.9
		c0.2,0,0.5,0,0.7,0c0.7-2.7,1.4-5.3,2.1-8c0.4,0.1,0.7,0.1,1.1,0.2C256.8,169.7,260.8,182.2,254.1,193.4z M261.5,118.8
		c-3.7-1.9-9-10.4-7.6-12.3c2.3-3.1,1-4.1-1.8-5.4c-0.4,1.5-0.7,2.7-0.9,3.5c-7.3,0-14.3,0-21.3,0c-0.4,0-0.9,0.6-1.3,0.9
		c-4.3,3.3-4.7,3.2-7.6-1.9c-1.4,0.5-2.8,1-4.5,1.5c3.6,8-2.8,13.1-5.8,19.7c-0.5-1-1.3-2-1.5-3.1c-1-4.9-1.8-9.9-2.6-14.8
		c-0.6-3.6,0.6-6.7,3.6-8.3c5-2.6,10.2-5.7,15.7-6.4c9.5-1.2,19.2-3.7,28.7,0.8c3.5,1.7,5.6,3.5,5.7,7.7c0.2,4.9,1.3,9.8,1.9,14.7
		C262.2,116.4,261.8,117.4,261.5,118.8z M259,89c0.3-0.5,0.6-0.9,0.9-1.4c-10.5,0.4-20.8-4.1-31.4,0.1c-6.4,2.5-13,4.5-19.5,7
		c-4.5,1.7-8.8,3.8-13.8,6c0.4-1.9,0.6-2.7,0.7-3.6c0.3-1.8,0.4-3.7,1-5.4c0.8-2.3,2.4-4.4,2.9-6.7c0.7-3.4-2.7-5.5-5.8-4.2
		c-1.8,0.8-3.7,1.3-6.4,2.2c0.8-2.7,1.3-4.4,2.1-6.9c-2.9,1.6-5.3,2.9-7.2,3.9c-4.2-1.8-8.3-3.6-12.4-5.4c-0.9-0.4-2.3-1.1-2.4-1.9
		c-0.7-3.2-1.2-6.4-1.3-9.7c-0.1-2.4,1-3.9,3.9-2.7c1.4,0.6,3.1,0.5,4.7,0.7c3.9,0.6,7.8,0.8,11.6,1.8c3.6,1,6.6,1.5,10.3-0.4
		c4.2-2.2,9.3-2.8,13.9-4.2c2-0.6,3.9-1.4,6.3-2.3c1,1.5,2.3,3.5,3.6,5.5c0.4-0.2,0.9-0.4,1.3-0.6c-0.5-2-1-4.1-1.8-7.2
		c1.8,0.9,3.5,1.2,3.6,1.8c0.6,5.6,3.8,4.1,7.3,2.2c-0.7,1.1-1,1.5-1.3,2c0.2,0.2,0.3,0.4,0.5,0.5c1.2-0.9,2.5-1.8,3.9-2.8
		c0.3,1,0.7,1.9,1,3.1c4.8-1.8,11.6,1.6,13.8-5.4c3.9-0.6,7.5-1.1,11.5-1.7c1,1.1,2.4,2.7,4.2,4.7c-0.5,2.3-1.1,5.2-1.8,8.1l0.1-0.1
		c0,0.4,0,0.8,0,1.2c-1.1,1.4-2.2,2.8-3.4,4.2c0.2,0.5,0.5,1,0.7,1.5c-1.6-0.5-3.2-1-5.2-1.7c1,3.8,1.4,7.5,4.3,11.1
		c2.5,3.2,3.2,7.9,4.8,11.9c-0.5,0.2-1.1,0.4-1.6,0.6C261.3,93,260.2,91,259,89z M314.7,243.8c-5.5,1.1-10.8,4-15.9,6.7
		c-3.2,1.7-5.8,2.4-9.4,1.1c-5.8-2.1-12.3-2.7-16.4,2.8c-1.9,2.6-3.4,3.4-6,3.3c-2.9-0.2-4.3-2.6-3.2-5.4c5.8,0.6,6.8-0.1,5.6-5.9
		c-0.8-4-0.2-5.7,3.6-5.1c0.3-1.3,0.4-3.3,0.7-3.4c5.6-0.7,3.6-4.8,3.8-7.9c0-0.4,0-0.8,0-1.3c5.9,0,1.7-3.7,2.1-5.7
		c5.9-3.6,5.9-3.6,7.7,3.2c2.3-3.9,5.2-4.6,9.4-3.1c4.6,1.6,9.7,2,14.5,2.9c5.7,1,7,6.1,10.2,10.3c-1.8,0.8-2.8,1.2-4.1,1.7
		C319.8,241.7,319.2,242.9,314.7,243.8z M336.2,153.1c0.2-0.4,0.3-0.8,0.5-1.2c3.1,0.4,7-1.6,8.6,4.7
		C341.8,155.2,339,154.1,336.2,153.1z M367.4,142.7c0.8-0.5,1.7-0.9,3.5-2c-5.5-1-10.4,3.9-15.3-1.6c8.5-2.4,16.4-6.9,25.2-0.9
		c-1.6,2.5-3.4,5.1-6.3,1.8c-2.5,1.2-4.7,2.2-6.9,3.3C367.6,143.2,367.5,142.9,367.4,142.7z M371.8,153.3c3.8-0.8,7.6-1.6,11.5-2.3
		c0.5-0.1,1.2,0.7,1.8,1.1C382.9,154.8,374.8,155.4,371.8,153.3z M424.2,258.1c-4.5-3.2-10.9-3.9-8.3-11.5c2.4,1,5.1,1.8,7.5,3.1
		C427.4,252,423.9,254.9,424.2,258.1z"/>
	<path d="M263.1,67.5L263.1,67.5C263.3,67.8,263.5,68,263.1,67.5z"/>
	<path d="M263.1,67.7C263.2,68,263.2,67.9,263.1,67.7L263.1,67.7z"/>
	<path d="M46.9,241.5c0.7-0.1,1.3-0.2,2-0.2c0.2,0,0.4,0,0.6,0c0.3-0.5,0.6-1.1,1-1.7C49.2,240.2,48,240.9,46.9,241.5z"/>
	<polygon points="76.4,236.9 76.6,236.8 76.5,236.5 	"/>
	<path d="M386.8,132.8c-0.9-0.3-1.8-0.6-2.6-0.9c-0.4,1-0.5,2.1-0.2,3.5c0.9,0,1.8,0.1,2.6,0.1c1.7,0.4,3.4,0.8,5.7,1.4
		c-0.2-0.7-0.4-1.2-0.5-1.7C390.1,134.4,388.3,133.7,386.8,132.8z"/>
	<path d="M155.4,109.5c-2.4-0.6-4.9-4.8-4.2-7.5c0.5-1.8,1.6-3.6,4-1.9C155.3,103.2,155.3,106.4,155.4,109.5z"/>
	<path d="M291.9,205.3c1.1-1.2,2.3-2.5,3.4-3.7c0.9,0.9,1.8,1.8,2.6,2.7c-0.4,1.6-0.8,3.2-1.3,5.4
		C294.6,207.9,293.2,206.6,291.9,205.3z"/>
	<path d="M88.5,198c-0.5-1-1-2-1.6-3.3c2.7,0.1,5.8-1.3,7,2.5c-1.6,0.6-3.2,1.2-4.8,1.8C88.9,198.7,88.7,198.4,88.5,198z"/>
	<path d="M171.1,250.8c0.1-1.7,0-3.4,0.2-5.1c0.2-1.7,0.5-3.3,0.9-5.6c3.4,6.8,3,9.2-1.3,10.6C170.9,250.7,171.1,250.8,171.1,250.8z
		"/>
	<path d="M88.5,198c0.2,0.3,0.4,0.7,0.6,1l0,0.1c-2.3,1-4.7,1.9-7.6,3.1C82.7,197.8,85.4,197.6,88.5,198z"/>
	<path d="M315,136.3c0,0,0.2,0.1,0.2,0.1S315,136.3,315,136.3z"/>
	<path d="M318.7,133.8l-0.2-0.4c0,0,0,0.4,0,0.4C318.5,133.8,318.7,133.8,318.7,133.8z"/>
	<path d="M76.4,236.9c0,0,0.1,0,0.1,0C76.6,236.8,76.4,236.9,76.4,236.9z"/>
	<path d="M222.9,76.3c-8,1.4-17.2,0.3-21.2-2.9C209.9,70.5,216.3,74.2,222.9,76.3z"/>
	<path d="M234.4,75c5.1-6.2,9-7.7,12.9-5.1C245,74.8,241,76.4,234.4,75z"/>
	<path d="M248.5,195.4c-8.2,6.1-17.3,6.6-27.4,3.2c1.8-0.9,3.6-1.8,5.6-2.8c-1.4-2.7,1-3.7,3.6-4.2c3.3-0.6,6.6-0.8,9.9-0.8
		c1,0,1.9,1.3,3,1.9C244.9,193.7,246.8,194.5,248.5,195.4L248.5,195.4z"/>
	<path d="M248.5,195.5c1.7-3.5,3.4-6.9,5.1-10.4C255.3,190.4,252,193,248.5,195.5C248.5,195.4,248.5,195.5,248.5,195.5z"/>
	<path d="M292.2,198.4c0.9-2.1,1.8-4.2,2.7-6.2c0.6,2.2,1.1,4.4,1.7,6.9C295.2,198.8,293.7,198.6,292.2,198.4z"/>
</g>
<rect x="32" y="280.6" class="st0" width="470" height="246.4"/>
<text transform="matrix(1 0 0 1 31.9995 333.8915)"><tspan x="0" y="0" class="st1 st2">KONG </tspan><tspan x="226.9" y="0" class="st3 st1 st2">HI-FI</tspan></text>
</svg>
